<?xml version="1.0" standalone="no"?>
<!DOCTYPE svg PUBLIC "-//W3C//DTD SVG 20010904//EN"
 "http://www.w3.org/TR/2001/REC-SVG-20010904/DTD/svg10.dtd">
<svg version="1.0" xmlns="http://www.w3.org/2000/svg"
 width="1170.000000pt" height="1170.000000pt" viewBox="0 0 1170.000000 1170.000000"
 preserveAspectRatio="xMidYMid meet">
<metadata>
Created by potrace 1.11, written by Peter Selinger 2001-2013
</metadata>
<g transform="translate(0.000000,1170.000000) scale(0.100000,-0.100000)"
fill="#000000" stroke="none">
<path d="M7530 11685 c19 -8 87 -34 150 -58 333 -129 387 -151 415 -162 17 -7
77 -31 135 -53 58 -22 175 -67 260 -100 85 -33 227 -88 315 -122 88 -34 180
-70 205 -80 25 -10 158 -62 295 -115 138 -53 277 -107 310 -120 33 -13 71 -26
85 -30 14 -4 48 -18 76 -31 28 -13 93 -39 145 -58 52 -18 155 -57 229 -86 74
-29 162 -62 195 -75 33 -12 164 -62 290 -110 127 -48 265 -100 308 -116 42
-15 103 -39 135 -53 31 -13 93 -38 137 -54 242 -92 356 -136 408 -158 32 -13
63 -24 68 -24 5 0 9 20 9 45 0 25 -4 45 -10 45 -5 0 -10 9 -10 19 0 21 -32 37
-62 32 -21 -3 -24 14 -5 23 6 3 2 3 -10 1 -12 -3 -24 -1 -28 5 -4 7 -18 9 -31
6 -19 -5 -24 -2 -24 14 0 28 -39 64 -70 65 -17 0 -25 6 -24 17 1 14 -6 17 -34
16 -20 -1 -40 5 -46 13 -6 8 -29 23 -51 34 -22 11 -41 23 -43 28 -2 4 -11 7
-20 7 -21 0 -116 35 -162 59 -19 10 -66 29 -103 41 -37 13 -70 27 -73 31 -3 5
-14 9 -25 9 -10 0 -19 5 -19 10 0 6 -8 10 -17 10 -10 0 -31 7 -46 15 -16 8
-46 19 -67 25 -22 6 -46 17 -54 25 -16 17 -51 21 -41 5 9 -14 -3 -12 -47 7
-21 9 -38 22 -38 29 0 8 -14 10 -45 6 -30 -3 -45 -1 -45 7 0 6 10 12 23 12 20
1 20 2 2 6 -21 4 -66 24 -75 33 -12 12 -74 29 -79 22 -4 -5 -15 -12 -25 -15
-16 -6 -17 -5 -7 7 18 22 5 36 -34 36 -20 0 -38 6 -43 15 -4 9 -21 17 -35 19
-15 1 -33 10 -40 19 -6 8 -31 20 -54 26 -46 13 -77 4 -127 -37 -16 -13 -32
-20 -35 -15 -3 4 -31 9 -61 10 -30 0 -56 6 -58 12 -6 17 -42 13 -42 -4 0 -8 3
-15 8 -15 24 -2 103 -29 84 -29 -13 -1 -20 -5 -17 -11 8 -13 -28 0 -36 13 -4
5 -20 11 -35 13 -16 2 -53 15 -81 29 -29 14 -60 25 -68 25 -8 0 -15 4 -15 8 0
5 -6 9 -12 10 -15 1 -127 42 -182 65 -21 9 -41 17 -44 17 -5 0 -113 41 -157
60 -11 4 -33 13 -50 18 -33 12 -430 165 -519 201 -16 7 -86 33 -155 58 -69 25
-130 48 -136 52 -5 5 -57 25 -115 46 -58 21 -199 75 -315 121 -285 113 -372
144 -398 143 -17 0 -14 -3 13 -14z m2550 -805 c0 -5 -4 -10 -9 -10 -5 0 -16
-3 -25 -6 -9 -3 -16 -1 -16 4 0 9 16 17 43 21 4 0 7 -3 7 -9z m-160 -50 c0 -5
-2 -10 -4 -10 -3 0 -8 5 -11 10 -3 6 -1 10 4 10 6 0 11 -4 11 -10z m130 6 c0
-3 -4 -8 -10 -11 -5 -3 -10 -1 -10 4 0 6 5 11 10 11 6 0 10 -2 10 -4z m-133
-42 c-3 -3 -12 -4 -19 -1 -8 3 -5 6 6 6 11 1 17 -2 13 -5z m443 -24 c0 -5 -4
-10 -10 -10 -5 0 -10 5 -10 10 0 6 5 10 10 10 6 0 10 -4 10 -10z m760 -306
c14 -8 17 -13 7 -10 -10 3 -25 6 -33 6 -8 0 -14 5 -14 10 0 14 10 12 40 -6z
m415 -244 c3 -5 1 -10 -4 -10 -6 0 -11 5 -11 10 0 6 2 10 4 10 3 0 8 -4 11
-10z"/>
<path d="M11615 11690 c-4 -6 5 -10 19 -10 14 0 26 5 26 10 0 6 -9 10 -19 10
-11 0 -23 -4 -26 -10z"/>
<path d="M11677 11688 c-7 -19 4 -78 14 -78 5 0 9 20 9 45 0 42 -12 60 -23 33z"/>
<path d="M11600 11644 c0 -8 5 -12 10 -9 6 3 10 10 10 16 0 5 -4 9 -10 9 -5 0
-10 -7 -10 -16z"/>
<path d="M2807 11390 c-4 -14 -6 -36 -6 -50 1 -18 4 -14 10 14 10 44 6 75 -4
36z"/>
<path d="M2670 11323 c0 -10 -6 -29 -13 -43 -13 -24 -7 -75 5 -54 9 14 21 114
14 114 -3 0 -6 -8 -6 -17z"/>
<path d="M2791 11294 c0 -11 3 -14 6 -6 3 7 2 16 -1 19 -3 4 -6 -2 -5 -13z"/>
<path d="M2892 11210 c0 -14 2 -19 5 -12 2 6 2 18 0 25 -3 6 -5 1 -5 -13z"/>
<path d="M2620 11189 c0 -5 5 -7 10 -4 6 3 10 8 10 11 0 2 -4 4 -10 4 -5 0
-10 -5 -10 -11z"/>
<path d="M9005 11170 c3 -5 11 -10 16 -10 6 0 7 5 4 10 -3 6 -11 10 -16 10 -6
0 -7 -4 -4 -10z"/>
<path d="M2732 11150 c0 -14 4 -38 8 -55 l8 -30 0 30 c0 17 -4 41 -8 55 l-8
25 0 -25z"/>
<path d="M9050 11160 c0 -6 7 -10 15 -10 8 0 15 2 15 4 0 2 -7 6 -15 10 -8 3
-15 1 -15 -4z"/>
<path d="M9450 11136 c0 -8 -6 -16 -12 -19 -14 -5 23 -47 42 -47 16 0 12 47
-6 64 -19 20 -24 20 -24 2z"/>
<path d="M2926 11131 c-4 -7 -5 -15 -2 -18 9 -9 19 4 14 18 -4 11 -6 11 -12 0z"/>
<path d="M9520 11092 c0 -16 8 -32 20 -40 18 -11 20 -10 20 16 0 27 -15 52
-32 52 -4 0 -8 -12 -8 -28z"/>
<path d="M3521 11094 c0 -11 3 -14 6 -6 3 7 2 16 -1 19 -3 4 -6 -2 -5 -13z"/>
<path d="M9302 11061 c-10 -6 -5 -11 19 -20 42 -14 42 -14 22 9 -20 22 -22 23
-41 11z"/>
<path d="M3531 11044 c0 -11 3 -14 6 -6 3 7 2 16 -1 19 -3 4 -6 -2 -5 -13z"/>
<path d="M3861 11023 c-1 -45 8 -53 29 -28 10 12 10 15 -3 15 -9 0 -17 11 -20
28 -3 19 -4 14 -6 -15z"/>
<path d="M3568 11011 c-5 -36 -3 -38 11 -13 5 10 6 24 2 31 -6 9 -10 3 -13
-18z"/>
<path d="M9376 11025 c-5 -15 30 -30 67 -27 9 0 15 -3 12 -8 -3 -5 14 -14 37
-20 24 -7 50 -16 58 -21 29 -18 41 -21 48 -14 9 9 -27 35 -50 35 -10 0 -18 8
-19 18 0 9 -3 12 -5 5 -6 -13 -51 7 -66 29 -7 11 -10 11 -17 0 -7 -11 -9 -11
-14 2 -8 20 -43 21 -51 1z"/>
<path d="M3672 10960 c0 -14 2 -19 5 -12 2 6 2 18 0 25 -3 6 -5 1 -5 -13z"/>
<path d="M9892 10967 c10 -8 16 -23 13 -35 -2 -12 0 -22 6 -22 5 0 9 11 9 25
0 14 1 28 3 33 1 4 -9 8 -23 10 -23 2 -23 1 -8 -11z"/>
<path d="M9840 10961 c0 -11 29 -35 35 -29 10 9 -7 38 -21 38 -8 0 -14 -4 -14
-9z"/>
<path d="M9990 10940 c20 -13 33 -13 25 0 -3 6 -14 10 -23 10 -15 0 -15 -2 -2
-10z"/>
<path d="M9643 10914 c30 -16 44 -14 32 5 -3 6 -18 11 -33 11 l-27 -1 28 -15z"/>
<path d="M9695 10900 c-4 -6 3 -10 14 -10 25 0 27 6 6 13 -8 4 -17 2 -20 -3z"/>
<path d="M4121 10834 c0 -11 3 -14 6 -6 3 7 2 16 -1 19 -3 4 -6 -2 -5 -13z"/>
<path d="M1583 10809 c3 -13 15 -58 27 -99 12 -41 19 -87 16 -102 -3 -16 -2
-28 3 -28 5 0 16 -20 25 -45 21 -54 39 -70 20 -17 -19 55 -17 96 6 117 24 22
10 46 -14 25 -18 -14 -15 -21 -46 87 -11 40 -26 75 -32 79 -7 5 -9 -1 -5 -17z"/>
<path d="M1655 10820 c-3 -5 3 -18 13 -28 22 -22 57 -108 67 -165 9 -45 21
-54 44 -33 16 14 19 14 33 0 9 -9 18 -12 22 -6 3 5 -3 17 -14 27 -17 15 -24
16 -45 7 -23 -11 -25 -9 -25 11 0 33 -29 116 -57 160 -25 40 -29 42 -38 27z"/>
<path d="M1490 10788 c0 -15 90 -291 97 -298 3 -3 3 12 0 32 -8 54 -80 278
-89 278 -4 0 -8 -5 -8 -12z"/>
<path d="M4131 10784 c0 -11 3 -14 6 -6 3 7 2 16 -1 19 -3 4 -6 -2 -5 -13z"/>
<path d="M4303 10710 c0 -25 2 -35 4 -22 2 12 2 32 0 45 -2 12 -4 2 -4 -23z"/>
<path d="M4216 10717 c-7 -28 6 -41 20 -19 8 13 8 20 -1 29 -10 9 -14 7 -19
-10z"/>
<path d="M5260 10651 c0 -6 5 -13 10 -16 6 -3 10 1 10 9 0 9 -4 16 -10 16 -5
0 -10 -4 -10 -9z"/>
<path d="M4452 10600 c0 -19 2 -27 5 -17 2 9 2 25 0 35 -3 9 -5 1 -5 -18z"/>
<path d="M1371 10602 c-6 -11 -11 -39 -11 -62 0 -50 24 -65 51 -32 9 12 19 22
22 22 3 0 14 -16 26 -35 21 -35 51 -47 51 -20 0 8 -6 12 -14 9 -9 -3 -21 13
-36 48 -24 55 -27 55 -60 -2 -15 -27 -24 -1 -12 37 13 42 0 67 -17 35z"/>
<path d="M1243 10578 c-6 -7 -13 -30 -16 -51 -5 -34 -2 -42 28 -73 19 -19 42
-34 52 -34 13 1 11 5 -9 16 -28 14 -37 47 -18 59 16 10 12 62 -6 79 -19 19
-19 19 -31 4z m27 -43 c0 -14 -4 -25 -10 -25 -5 0 -10 11 -10 25 0 14 5 25 10
25 6 0 10 -11 10 -25z"/>
<path d="M1185 10504 c0 -45 -5 -68 -16 -79 -15 -15 -18 -12 -38 35 -28 65
-39 58 -16 -10 9 -28 15 -60 12 -71 -3 -10 -1 -22 5 -25 5 -3 12 3 15 15 3 12
11 21 19 21 7 0 18 9 24 19 11 22 13 130 2 148 -4 6 -7 -18 -7 -53z"/>
<path d="M1062 10456 c23 -47 43 -84 45 -82 7 7 -63 160 -74 163 -7 3 6 -34
29 -81z"/>
<path d="M6648 10473 c7 -3 16 -2 19 1 4 3 -2 6 -13 5 -11 0 -14 -3 -6 -6z"/>
<path d="M895 10403 c-12 -101 -14 -103 -47 -32 -35 75 -44 66 -29 -30 14 -87
14 -124 1 -116 -16 10 -11 -8 10 -35 l20 -25 -1 35 c0 19 -4 55 -9 80 -11 59
3 72 23 22 9 -22 20 -43 26 -46 5 -3 12 37 16 95 8 109 1 147 -10 52z"/>
<path d="M960 10396 c0 -8 5 -18 10 -21 6 -3 10 1 10 9 0 8 -4 18 -10 21 -5 3
-10 -1 -10 -9z"/>
<path d="M774 10326 c23 -85 34 -94 16 -14 -18 79 -21 88 -29 88 -5 0 1 -33
13 -74z"/>
<path d="M7105 10369 c-11 -16 -1 -19 13 -3 7 8 8 14 3 14 -5 0 -13 -5 -16
-11z"/>
<path d="M6565 10310 c3 -5 8 -10 11 -10 2 0 4 5 4 10 0 6 -5 10 -11 10 -5 0
-7 -4 -4 -10z"/>
<path d="M6647 10289 c7 -7 15 -10 18 -7 3 3 -2 9 -12 12 -14 6 -15 5 -6 -5z"/>
<path d="M7621 10084 c0 -11 3 -14 6 -6 3 7 2 16 -1 19 -3 4 -6 -2 -5 -13z"/>
<path d="M3641 10024 c0 -11 3 -14 6 -6 3 7 2 16 -1 19 -3 4 -6 -2 -5 -13z"/>
<path d="M9828 9973 c7 -3 16 -2 19 1 4 3 -2 6 -13 5 -11 0 -14 -3 -6 -6z"/>
<path d="M3152 9950 c0 -14 2 -19 5 -12 2 6 2 18 0 25 -3 6 -5 1 -5 -13z"/>
<path d="M4201 9924 c0 -11 3 -14 6 -6 3 7 2 16 -1 19 -3 4 -6 -2 -5 -13z"/>
<path d="M7510 9929 c0 -5 5 -7 10 -4 6 3 10 8 10 11 0 2 -4 4 -10 4 -5 0 -10
-5 -10 -11z"/>
<path d="M320 9905 c0 -8 5 -15 10 -15 6 0 10 7 10 15 0 8 -4 15 -10 15 -5 0
-10 -7 -10 -15z"/>
<path d="M3283 9903 c9 -2 23 -2 30 0 6 3 -1 5 -18 5 -16 0 -22 -2 -12 -5z"/>
<path d="M4390 9900 c0 -5 5 -10 10 -10 6 0 10 5 10 10 0 6 -4 10 -10 10 -5 0
-10 -4 -10 -10z"/>
<path d="M7270 9906 c0 -3 9 -10 20 -16 11 -6 20 -8 20 -6 0 3 -9 10 -20 16
-11 6 -20 8 -20 6z"/>
<path d="M7365 9880 c3 -5 8 -10 11 -10 2 0 4 5 4 10 0 6 -5 10 -11 10 -5 0
-7 -4 -4 -10z"/>
<path d="M1804 9788 c38 -90 79 -168 86 -168 16 0 60 23 60 32 0 11 -17 10
-41 -2 -17 -10 -23 -2 -62 79 -23 50 -45 90 -50 91 -4 0 -1 -15 7 -32z"/>
<path d="M5801 9794 c0 -11 3 -14 6 -6 3 7 2 16 -1 19 -3 4 -6 -2 -5 -13z"/>
<path d="M7570 9799 c0 -5 5 -7 10 -4 6 3 10 8 10 11 0 2 -4 4 -10 4 -5 0 -10
-5 -10 -11z"/>
<path d="M5536 9754 c-5 -14 -4 -15 9 -4 17 14 19 20 6 20 -5 0 -12 -7 -15
-16z"/>
<path d="M427 9742 c-23 -26 -21 -44 9 -65 20 -15 28 -16 39 -7 21 17 19 54
-3 73 -23 21 -25 21 -45 -1z"/>
<path d="M6055 9709 c-11 -16 -1 -19 13 -3 7 8 8 14 3 14 -5 0 -13 -5 -16 -11z"/>
<path d="M1510 9685 c0 -8 7 -32 16 -53 31 -72 34 -90 16 -111 -9 -11 -28 -22
-41 -26 -22 -7 -23 -6 -16 35 6 33 4 41 -6 38 -18 -6 -24 -65 -8 -84 9 -11 22
-14 47 -9 33 6 34 5 28 -17 -4 -13 -9 -36 -12 -53 l-5 -30 21 25 c16 18 21 34
18 62 -4 43 -1 46 18 21 11 -16 12 -13 7 19 -5 34 -3 38 35 65 41 28 56 63 27
63 -8 0 -15 -9 -15 -20 0 -13 -7 -20 -18 -20 -10 0 -23 -5 -30 -12 -16 -16
-26 -4 -47 59 -17 53 -35 78 -35 48z"/>
<path d="M3640 9680 c0 -5 5 -10 11 -10 5 0 7 5 4 10 -3 6 -8 10 -11 10 -2 0
-4 -4 -4 -10z"/>
<path d="M1815 9651 c-3 -5 -1 -12 5 -16 5 -3 10 1 10 9 0 18 -6 21 -15 7z"/>
<path d="M5466 9652 c-2 -4 -1 -14 5 -22 7 -12 9 -10 9 8 0 23 -5 28 -14 14z"/>
<path d="M2167 9609 c-29 -15 -37 -25 -35 -41 2 -12 9 -23 17 -26 9 -3 11 1 7
16 -16 49 119 70 175 27 36 -27 89 -96 127 -165 34 -62 33 -67 -15 -61 -24 3
-13 -19 12 -25 34 -8 55 11 55 50 0 18 5 37 12 44 6 6 8 15 4 19 -4 5 -15 -2
-25 -13 -17 -22 -17 -21 -44 25 -36 66 -100 136 -141 155 -45 21 -103 20 -149
-5z"/>
<path d="M1993 9601 c-13 -11 -23 -22 -23 -25 0 -13 34 -5 45 11 19 25 40 10
70 -51 22 -45 27 -66 22 -102 -8 -73 -69 -124 -83 -69 -7 30 18 75 47 82 27 7
23 23 -5 23 -31 0 -66 -43 -66 -80 0 -43 31 -75 64 -66 32 8 65 71 66 123 0
38 -34 120 -62 151 -26 27 -46 27 -75 3z"/>
<path d="M10443 9602 c-7 -4 -50 -9 -95 -11 -46 -1 -110 -6 -143 -12 -106 -16
-165 -28 -174 -34 -5 -3 -76 -28 -158 -56 -81 -28 -168 -60 -193 -71 -24 -11
-74 -24 -111 -29 -100 -12 -117 -23 -124 -78 -3 -25 -11 -71 -16 -101 -14 -73
-14 -372 0 -399 6 -11 11 -30 11 -43 0 -13 5 -29 11 -35 13 -13 26 -69 40
-168 5 -38 13 -79 18 -90 15 -32 21 -99 11 -115 -9 -13 -10 -13 -11 0 0 10 -3
9 -8 -4 -4 -11 -6 -41 -5 -68 2 -26 0 -48 -4 -48 -4 0 -8 -8 -9 -17 -9 -131
-8 -158 12 -255 11 -60 18 -108 14 -108 -20 0 -228 133 -223 142 4 7 2 8 -4 4
-6 -4 -27 4 -46 16 -37 24 -57 52 -30 41 10 -4 17 2 21 17 4 17 11 21 29 17
16 -3 24 0 24 9 0 8 -4 14 -9 14 -5 0 -11 10 -15 23 -3 13 -21 43 -41 68 -30
38 -35 51 -33 91 1 26 -1 51 -5 54 -3 3 1 24 10 46 10 24 14 55 10 83 -2 25
-1 45 4 45 19 0 8 41 -14 51 -12 6 -32 23 -42 40 -13 18 -32 31 -53 35 -44 8
-64 -9 -57 -50 5 -27 2 -33 -24 -49 -17 -10 -38 -31 -48 -47 -9 -16 -34 -36
-54 -44 -40 -16 -45 -27 -54 -121 -5 -53 -30 -170 -47 -220 -5 -16 -14 -49
-19 -72 -12 -62 -36 -113 -52 -113 -10 0 -14 -9 -13 -25 1 -19 5 -23 20 -19
10 3 16 2 13 -2 -3 -5 6 -9 19 -9 18 0 30 11 49 46 13 25 22 49 18 53 -3 3 1
6 10 6 19 0 23 15 7 25 -6 4 -6 12 -1 23 5 9 12 25 15 35 5 17 7 17 31 1 20
-13 23 -19 14 -36 -8 -15 -13 -17 -25 -7 -12 9 -14 6 -14 -19 0 -17 -5 -34
-10 -37 -15 -9 7 -35 29 -35 10 0 24 -17 35 -42 l19 -43 11 35 c18 59 31 73
67 75 19 1 45 -2 59 -8 14 -6 28 -10 33 -9 4 1 6 -3 5 -10 -2 -8 17 -15 49
-19 38 -5 80 -23 148 -63 53 -31 98 -56 101 -56 2 0 30 -17 62 -37 31 -21 58
-38 60 -39 2 -1 -4 -14 -13 -28 -10 -15 -15 -37 -13 -51 3 -14 1 -28 -3 -31
-5 -3 -9 -15 -9 -27 0 -77 -88 -193 -165 -217 -22 -7 -44 -15 -49 -18 -5 -3
-32 -6 -59 -6 -30 -1 -52 -7 -55 -14 -2 -7 -8 -10 -13 -6 -5 3 -15 2 -21 -3
-14 -8 -20 -9 -85 -11 -30 -1 -43 -6 -43 -16 0 -8 6 -17 13 -19 6 -3 -4 -3
-23 0 -19 3 -39 9 -44 14 -5 4 -14 5 -22 2 -8 -3 -16 5 -20 21 -7 30 -10 31
-30 12 -12 -13 -12 -15 4 -19 16 -4 16 -5 0 -6 -10 0 -18 -8 -18 -17 0 -13 3
-14 14 -5 10 9 19 7 37 -9 19 -15 21 -19 7 -20 -9 0 -19 -6 -22 -12 -5 -10 -7
-10 -12 0 -9 19 -24 14 -24 -8 0 -11 -6 -20 -13 -20 -21 0 -28 12 -16 27 9 10
7 13 -9 13 -18 0 -20 -4 -13 -22 9 -24 -8 -70 -25 -64 -6 2 -16 -6 -23 -17
-10 -17 -10 -19 -1 -10 10 9 16 8 28 -3 16 -17 16 -16 -18 -34 -17 -9 -25 -10
-28 -1 -2 6 -11 11 -20 11 -8 0 -13 -3 -9 -6 3 -3 -8 -18 -24 -31 -34 -29 -43
-25 -44 20 0 29 -3 32 -27 29 l-28 -3 4 150 c2 83 7 155 11 161 9 15 13 70 5
70 -3 0 -5 26 -5 58 1 31 -2 60 -7 63 -13 9 9 49 26 49 25 0 93 58 104 88 10
30 10 31 -21 30 -18 -1 -36 -7 -42 -14 -20 -25 -93 -22 -125 6 -42 36 -82 27
-143 -32 -47 -47 -53 -58 -53 -95 0 -24 2 -43 6 -43 6 0 33 -105 35 -131 0 -3
8 -13 18 -23 21 -21 22 -36 3 -36 -19 0 -66 -57 -66 -80 0 -11 -13 -40 -29
-66 -17 -25 -33 -58 -36 -74 -3 -15 -31 -53 -62 -85 -60 -64 -100 -139 -83
-159 6 -8 5 -19 -4 -32 -17 -26 -9 -153 10 -161 8 -3 14 -18 14 -35 0 -28 19
-58 37 -58 4 0 15 -18 24 -39 13 -31 28 -45 70 -66 30 -14 69 -35 88 -46 18
-11 38 -18 45 -16 33 11 243 -76 294 -122 65 -59 159 -126 192 -137 54 -18 75
-68 75 -177 0 -66 3 -86 13 -82 6 2 12 0 12 -5 0 -6 -6 -10 -13 -10 -22 0 5
-120 42 -191 29 -56 30 -59 11 -69 -10 -5 -62 -10 -115 -10 -105 0 -121 -5
-178 -60 -36 -34 -37 -37 -26 -65 7 -17 13 -35 14 -41 0 -6 6 -19 14 -28 7 -9
10 -16 6 -16 -5 0 -2 -8 6 -17 8 -10 21 -31 29 -48 8 -16 22 -36 30 -45 8 -9
31 -36 50 -60 19 -24 54 -64 77 -88 39 -43 70 -96 108 -187 9 -22 23 -55 31
-73 8 -18 14 -37 14 -43 0 -6 14 -42 31 -81 24 -56 29 -75 21 -92 -17 -35 -32
-88 -32 -112 0 -13 -9 -43 -19 -66 -11 -24 -27 -61 -37 -83 -54 -127 -181
-387 -231 -476 -21 -36 -76 -113 -123 -170 -83 -102 -98 -124 -129 -184 -8
-16 -45 -71 -82 -121 -89 -119 -115 -163 -194 -319 -60 -117 -68 -141 -80
-230 -8 -55 -15 -127 -15 -160 0 -33 -7 -82 -15 -109 -16 -54 -24 -130 -25
-251 0 -99 -8 -115 -44 -92 -14 9 -35 17 -46 17 -12 0 -24 9 -30 24 -5 13 -13
27 -18 30 -13 8 -22 61 -23 137 -1 51 -6 70 -25 96 -13 17 -24 36 -24 41 0 12
-44 52 -57 52 -5 0 -18 18 -29 40 -17 35 -25 41 -81 56 -51 14 -64 22 -73 45
-16 38 -50 48 -68 21 -13 -20 -52 -20 -52 1 0 5 -11 24 -24 41 -12 17 -31 47
-41 66 -37 74 -100 150 -140 170 -43 21 -63 19 -122 -11 -21 -11 -42 -19 -48
-19 -6 0 -20 -8 -31 -18 -20 -18 -46 -37 -109 -79 -22 -14 -45 -32 -52 -39 -7
-7 -18 -14 -25 -16 -14 -5 -12 -9 50 -108 12 -19 22 -45 22 -57 0 -13 5 -23
11 -23 6 0 9 -6 6 -14 -9 -23 30 -176 45 -176 4 0 8 -10 8 -22 0 -13 7 -32 15
-42 8 -10 12 -23 9 -27 -3 -5 -1 -17 4 -26 6 -10 13 -49 16 -88 4 -38 9 -78
12 -87 3 -10 2 -23 -2 -29 -4 -6 -9 -72 -11 -145 -3 -110 -1 -138 11 -156 9
-12 16 -30 16 -39 0 -9 7 -19 15 -23 8 -3 15 -12 15 -19 0 -8 7 -20 15 -27 19
-16 16 -69 -5 -74 -8 -2 -27 -4 -41 -4 -45 -2 -216 -90 -265 -137 -214 -206
-279 -273 -342 -352 -18 -22 -46 -46 -62 -53 -29 -12 -36 -31 -32 -90 0 -8 -8
-42 -19 -74 -10 -33 -24 -87 -30 -120 -6 -34 -13 -72 -16 -86 -11 -51 -12
-176 -3 -224 9 -42 50 -125 100 -201 62 -95 105 -152 158 -210 31 -33 54 -74
48 -83 -7 -12 22 -52 40 -52 8 0 14 -6 14 -13 0 -7 9 -18 20 -25 11 -7 20 -18
20 -26 0 -7 7 -19 15 -26 8 -7 15 -28 15 -46 l0 -34 2400 0 2400 0 0 2594 0
2594 -87 79 c-48 43 -104 94 -124 113 -84 82 -223 206 -255 227 -18 13 -34 27
-35 31 0 4 -2 30 -3 57 -1 28 -9 65 -19 84 -23 45 -22 46 16 62 42 17 120 76
129 97 4 9 7 32 7 50 1 28 8 37 54 66 45 29 54 40 65 80 6 25 12 59 12 75 0
25 -3 28 -25 23 -14 -2 -23 -8 -20 -12 3 -4 -3 -7 -13 -6 -20 1 -34 29 -26 51
8 20 -19 29 -46 15 -22 -12 -64 -5 -55 9 2 5 26 14 52 21 27 7 62 20 78 28 38
18 115 100 115 122 0 23 38 70 56 70 8 0 14 5 14 10 0 6 25 10 55 10 l55 0 0
1379 0 1380 -57 27 c-32 15 -108 51 -170 80 -62 30 -119 54 -128 54 -8 0 -23
4 -33 10 -97 54 -212 82 -336 81 -55 0 -139 4 -186 9 -47 5 -125 12 -174 15
-49 3 -92 8 -96 10 -15 9 -66 14 -77 7z m-1373 -1123 c0 -22 -11 -42 -40 -72
-47 -47 -65 -41 -45 16 15 43 51 87 72 87 8 0 13 -12 13 -31z m55 -218 c3 -5
1 -12 -5 -16 -5 -3 -10 1 -10 9 0 18 6 21 15 7z m45 -101 c0 -5 -4 -10 -10
-10 -5 0 -10 5 -10 10 0 6 5 10 10 10 6 0 10 -4 10 -10z m-112 -66 c37 -15 92
-61 92 -76 0 -18 -48 -6 -92 21 -50 32 -62 46 -53 61 8 13 9 13 53 -6z m-148
-129 c0 -8 -7 -15 -15 -15 -26 0 -18 20 13 29 1 1 2 -6 2 -14z m1358 -88 c3
-14 -4 -17 -34 -17 -37 0 -37 0 -18 20 23 23 47 22 52 -3z m-63 -37 c3 -5 2
-10 -4 -10 -5 0 -13 5 -16 10 -3 6 -2 10 4 10 5 0 13 -4 16 -10z m-35 -15 c10
-12 9 -15 -8 -15 -11 0 -22 7 -26 15 -3 9 0 15 8 15 7 0 19 -7 26 -15z m-80
-55 c0 -5 -7 -7 -15 -4 -8 4 -15 8 -15 10 0 2 7 4 15 4 8 0 15 -4 15 -10z
m-46 -9 c3 -5 -1 -14 -9 -21 -11 -9 -14 -8 -12 9 1 22 12 28 21 12z m-54 -31
c8 -5 11 -10 5 -10 -5 0 -17 5 -25 10 -8 5 -10 10 -5 10 6 0 17 -5 25 -10z
m-149 -505 c5 4 23 -7 40 -24 17 -17 35 -31 40 -31 5 0 9 -3 9 -7 0 -5 12 -21
28 -38 52 -57 34 -113 -40 -125 -17 -3 -37 -15 -46 -28 -14 -22 -13 -25 34
-70 30 -29 66 -52 92 -60 23 -7 49 -23 57 -36 21 -32 57 -46 116 -46 46 0 50
-2 44 -21 -5 -15 -2 -22 14 -26 48 -12 10 -54 -89 -101 -78 -36 -148 -44 -281
-32 -110 11 -180 36 -206 77 -33 51 -47 63 -77 63 -16 0 -27 3 -23 6 3 3 1 19
-5 36 -8 24 -8 32 3 39 12 8 12 11 -1 19 -13 9 -13 12 2 20 9 6 19 24 23 40 4
16 11 32 16 35 5 4 9 17 9 29 0 13 7 29 15 36 8 7 15 18 15 26 0 7 11 33 25
58 14 25 25 50 25 56 0 6 15 24 34 40 18 17 36 43 39 60 l6 29 36 -15 c20 -8
40 -12 46 -9z m16 19 c-3 -3 -12 -4 -19 -1 -8 3 -5 6 6 6 11 1 17 -2 13 -5z
m173 -884 c0 -15 48 -12 53 3 3 8 10 5 23 -11 10 -12 32 -23 47 -24 39 -3 52
-21 31 -42 -15 -16 -15 -18 1 -36 10 -11 24 -20 32 -20 8 0 12 -4 8 -9 -3 -5
4 -12 15 -16 13 -4 19 -13 16 -28 -3 -21 -16 -27 -126 -56 -25 -7 -61 -17 -80
-22 -19 -6 -57 -14 -85 -19 -27 -5 -72 -16 -100 -24 -201 -60 -317 -87 -331
-75 -10 8 -14 8 -14 0 0 -6 -9 -11 -21 -11 -11 0 -17 -4 -14 -10 3 -5 -1 -10
-10 -10 -9 0 -14 -4 -11 -9 3 -5 -4 -11 -17 -15 -34 -9 -48 -7 -46 7 3 27 -2
37 -18 38 -14 0 -15 2 -3 6 8 3 19 12 23 19 4 8 15 14 22 14 8 0 15 6 15 13 0
8 4 7 10 -3 8 -12 12 -13 19 -2 6 10 10 7 15 -12 3 -14 10 -26 15 -26 14 0 23
32 11 44 -5 5 -10 18 -10 27 0 9 -8 19 -18 21 -29 8 -27 64 3 104 14 18 25 42
25 54 0 13 9 24 25 30 28 11 31 22 10 40 -11 9 -12 16 -2 31 14 22 42 26 33 4
-3 -8 1 -18 8 -22 7 -5 16 -16 19 -26 9 -25 49 -18 61 10 7 14 18 21 35 20 18
-2 26 3 26 15 0 26 15 35 29 16 10 -13 20 -15 56 -8 25 5 52 5 60 0 8 -5 23
-4 33 1 10 6 27 7 37 4 11 -4 30 1 42 9 26 18 48 21 48 6z m-592 -262 c-2 -18
-11 -24 -35 -26 -40 -4 -42 7 -5 30 37 22 44 22 40 -4z m-78 -98 c0 -5 -2 -10
-4 -10 -3 0 -8 5 -11 10 -3 6 -1 10 4 10 6 0 11 -4 11 -10z m-240 -38 c0 8 3
9 11 1 11 -11 2 -60 -14 -70 -6 -3 -7 -1 -3 5 4 7 1 12 -6 12 -9 0 -9 3 2 10
12 8 9 10 -12 10 -21 0 -28 5 -28 20 0 17 4 18 25 10 18 -7 25 -6 25 2z m60
-2 c0 -5 -7 -10 -16 -10 -8 0 -12 5 -9 10 3 6 10 10 16 10 5 0 9 -4 9 -10z
m10 -90 c9 -16 8 -20 -5 -20 -8 0 -15 9 -15 20 0 11 2 20 5 20 2 0 9 -9 15
-20z m-1428 -3239 c23 -44 24 -49 11 -94 -7 -26 -18 -47 -23 -47 -8 0 -23 -48
-21 -67 1 -5 31 -8 68 -8 50 0 68 -4 71 -15 5 -13 3 -13 -11 -1 -15 12 -17 11
-17 -8 0 -18 -6 -21 -43 -21 -30 0 -48 -6 -60 -20 -9 -11 -26 -20 -37 -20 -11
0 -20 -4 -20 -10 0 -5 -11 -10 -24 -10 -13 0 -31 -3 -40 -6 -20 -8 -21 -34 -1
-34 8 0 15 -5 15 -11 0 -17 32 -38 56 -39 17 0 102 -40 124 -57 3 -3 -3 -9
-13 -14 -9 -6 -17 -18 -17 -28 0 -23 -23 -33 -56 -25 -79 20 41 -73 131 -101
22 -7 39 -17 38 -22 -1 -5 8 -9 19 -9 12 1 23 -4 25 -11 3 -9 -7 -11 -34 -9
-21 2 -44 -1 -50 -7 -9 -6 -13 -6 -13 2 0 6 -5 11 -11 11 -8 0 -8 -4 1 -14 6
-8 17 -13 25 -10 7 3 16 0 21 -7 4 -7 2 -15 -4 -17 -19 -6 13 -32 39 -32 13 0
33 10 46 22 19 18 26 20 32 9 6 -10 14 -11 26 -3 23 12 54 4 82 -20 21 -20 21
-20 25 4 4 23 5 23 16 -4 7 -17 17 -26 25 -22 10 3 16 -4 19 -20 4 -18 1 -26
-8 -26 -8 0 -14 -6 -15 -12 0 -10 -2 -10 -6 0 -7 18 -33 14 -33 -6 0 -19 -35
-54 -44 -44 -10 9 -57 -21 -52 -34 3 -7 -2 -18 -11 -25 -21 -18 -85 -39 -96
-32 -5 3 -18 -5 -28 -18 -18 -22 -20 -23 -33 -6 -16 20 -32 22 -39 5 -4 -10
-8 -9 -16 2 -9 12 -12 13 -20 1 -6 -9 -18 -11 -42 -6 -18 4 -57 7 -85 6 -39
-1 -53 3 -58 15 -4 9 -13 14 -22 10 -8 -3 -12 -2 -9 4 3 6 0 10 -8 10 -13 0
-82 60 -199 172 -15 15 -28 34 -28 41 0 8 -7 20 -15 27 -12 10 -15 31 -12 102
3 70 0 93 -11 105 -9 8 -16 29 -17 46 -1 18 -5 40 -10 50 -5 12 0 24 16 38 13
12 23 25 22 29 -1 5 11 11 26 15 32 7 49 33 28 41 -7 2 -30 -2 -50 -11 -45
-18 -47 -19 -47 -1 0 8 -7 22 -16 31 -9 8 -13 23 -10 32 4 9 9 13 12 10 8 -8
76 27 93 47 8 9 17 16 22 16 4 0 83 49 174 109 106 69 174 107 185 104 10 -3
29 -26 42 -52z m201 -221 c20 0 37 -4 37 -10 0 -16 -65 -12 -96 6 -27 15 -27
15 -4 10 14 -3 42 -6 63 -6z m37 -65 c0 12 44 14 56 3 4 -4 13 -3 21 3 10 9
13 8 13 0 0 -7 -14 -18 -30 -25 -29 -12 -33 -30 -4 -19 8 3 14 0 14 -6 0 -6
-15 -11 -34 -11 -30 0 -34 3 -30 23 l5 22 -12 -22 c-7 -13 -15 -23 -19 -23
-15 0 -20 32 -9 52 9 17 13 18 20 7 5 -8 9 -9 9 -4z m-20 -415 c0 -5 -4 -10
-9 -10 -6 0 -13 5 -16 10 -3 6 1 10 9 10 9 0 16 -4 16 -10z m-225 -505 c39 -4
106 -13 150 -22 53 -10 107 -14 160 -10 98 7 125 -6 144 -66 18 -58 55 -103
95 -117 34 -11 35 -12 31 -58 -3 -26 -7 -93 -9 -150 -3 -57 -9 -109 -15 -116
-6 -7 -9 -25 -8 -42 2 -27 0 -29 -35 -28 -24 1 -38 -4 -38 -11 0 -15 25 -27
34 -17 4 3 14 7 22 8 11 2 14 -3 11 -17 -3 -10 -2 -17 2 -14 10 5 1 -155 -9
-175 -4 -8 -6 -37 -4 -65 4 -58 -4 -115 -17 -115 -4 0 -22 20 -39 45 -26 38
-30 49 -19 61 11 14 8 15 -26 8 -34 -6 -37 -5 -32 10 4 10 7 23 7 30 0 7 9 22
20 34 15 16 17 22 7 22 -10 0 -13 8 -10 24 7 36 -9 38 -64 9 -50 -27 -83 -27
-83 0 0 8 25 30 57 49 l56 35 -26 18 c-25 16 -30 16 -68 1 -32 -13 -43 -14
-52 -4 -17 18 -57 87 -57 99 0 18 -52 79 -66 79 -8 0 -20 11 -26 25 -6 14 -14
25 -18 25 -9 0 -81 97 -97 130 -7 14 -21 63 -33 110 -11 47 -34 113 -50 146
-17 34 -30 65 -30 69 0 4 15 5 33 1 17 -3 64 -8 102 -11z m405 -790 c0 -8 -8
-15 -17 -15 -9 0 -24 -7 -34 -16 -10 -9 -23 -13 -29 -9 -8 5 2 16 26 30 47 28
54 29 54 10z"/>
<path d="M9064 8055 c21 -16 32 -13 21 4 -3 6 -14 11 -23 11 -15 -1 -15 -2 2
-15z"/>
<path d="M9521 6224 c0 -11 3 -14 6 -6 3 7 2 16 -1 19 -3 4 -6 -2 -5 -13z"/>
<path d="M9418 5973 c7 -3 16 -2 19 1 4 3 -2 6 -13 5 -11 0 -14 -3 -6 -6z"/>
<path d="M8025 1820 c-3 -5 3 -10 15 -10 12 0 18 5 15 10 -3 6 -10 10 -15 10
-5 0 -12 -4 -15 -10z"/>
<path d="M8077 1816 c-4 -10 -1 -13 9 -9 7 3 14 9 14 14 0 14 -17 10 -23 -5z"/>
<path d="M8001 1744 c0 -11 3 -14 6 -6 3 7 2 16 -1 19 -3 4 -6 -2 -5 -13z"/>
<path d="M8271 734 c0 -11 3 -14 6 -6 3 7 2 16 -1 19 -3 4 -6 -2 -5 -13z"/>
<path d="M8235 550 c-3 -5 -1 -10 4 -10 6 0 11 5 11 10 0 6 -2 10 -4 10 -3 0
-8 -4 -11 -10z"/>
<path d="M1835 9559 c4 -13 13 -30 20 -38 11 -11 12 -7 6 20 -3 18 -12 34 -20
37 -10 3 -11 -2 -6 -19z"/>
<path d="M5570 9576 c0 -2 7 -7 16 -10 8 -3 12 -2 9 4 -6 10 -25 14 -25 6z"/>
<path d="M5827 9568 c-8 -5 -5 -8 8 -8 11 0 27 5 35 10 12 7 10 9 -8 7 -13 -1
-28 -5 -35 -9z"/>
<path d="M1240 9559 c0 -43 105 -279 124 -279 2 0 1 11 -2 25 -3 20 0 25 15
25 11 0 28 9 38 20 12 14 25 17 46 13 21 -4 30 -1 35 11 9 23 -2 32 -21 16
-12 -10 -16 -8 -25 15 -5 14 -10 32 -10 39 0 17 -28 41 -37 32 -3 -3 -2 -21 4
-40 8 -26 7 -39 -6 -60 -8 -14 -21 -26 -28 -26 -16 0 -17 53 -2 82 6 11 8 22
5 25 -11 11 -34 -18 -40 -50 l-7 -32 -19 44 c-11 24 -27 68 -36 97 -8 30 -20
54 -25 54 -5 0 -9 -5 -9 -11z"/>
<path d="M1727 9553 c-13 -13 -7 -81 9 -93 13 -11 20 -9 47 18 35 35 30 57 -6
24 -33 -31 -40 -27 -33 18 6 37 -1 50 -17 33z"/>
<path d="M5935 9549 c4 -6 10 -8 13 -5 3 3 11 1 17 -4 9 -8 14 -6 19 5 4 11
-2 15 -25 15 -19 0 -28 -4 -24 -11z"/>
<path d="M6125 9520 c-3 -5 1 -10 10 -10 9 0 13 5 10 10 -3 6 -8 10 -10 10 -2
0 -7 -4 -10 -10z"/>
<path d="M1655 9493 c7 -29 35 -67 43 -58 3 2 0 10 -5 17 -6 7 -13 25 -17 41
-3 15 -11 27 -17 27 -7 0 -9 -10 -4 -27z"/>
<path d="M6122 9435 c0 -16 2 -22 5 -12 2 9 2 23 0 30 -3 6 -5 -1 -5 -18z"/>
<path d="M1202 9437 c-58 -70 -70 -246 -19 -279 21 -13 53 -9 70 10 27 30 20
46 -9 23 -15 -12 -33 -21 -41 -21 -19 0 -33 42 -33 98 0 36 3 43 12 34 24 -24
47 -13 58 29 22 80 -3 149 -38 106z m18 -91 c-5 -15 -16 -26 -23 -23 -16 6
-11 45 11 77 l17 25 3 -26 c2 -14 -2 -38 -8 -53z"/>
<path d="M6091 9424 c0 -11 3 -14 6 -6 3 7 2 16 -1 19 -3 4 -6 -2 -5 -13z"/>
<path d="M3003 9295 c-3 -9 -3 -18 -1 -21 3 -3 8 4 11 16 6 23 -1 27 -10 5z"/>
<path d="M3412 9190 c0 -14 2 -19 5 -12 2 6 2 18 0 25 -3 6 -5 1 -5 -13z"/>
<path d="M3062 9150 c0 -14 2 -19 5 -12 2 6 2 18 0 25 -3 6 -5 1 -5 -13z"/>
<path d="M4650 9112 c0 -4 7 -16 15 -26 15 -19 15 -19 15 1 0 11 -7 23 -15 27
-8 3 -15 2 -15 -2z"/>
<path d="M3750 9011 c0 -6 5 -13 10 -16 6 -3 10 1 10 9 0 9 -4 16 -10 16 -5 0
-10 -4 -10 -9z"/>
<path d="M3282 8930 c0 -14 2 -19 5 -12 2 6 2 18 0 25 -3 6 -5 1 -5 -13z"/>
<path d="M3587 8936 c-4 -10 -1 -13 8 -9 8 3 12 9 9 14 -7 12 -11 11 -17 -5z"/>
<path d="M4078 8943 c7 -3 16 -2 19 1 4 3 -2 6 -13 5 -11 0 -14 -3 -6 -6z"/>
<path d="M3421 8874 c0 -11 3 -14 6 -6 3 7 2 16 -1 19 -3 4 -6 -2 -5 -13z"/>
<path d="M3981 8784 c0 -11 3 -14 6 -6 3 7 2 16 -1 19 -3 4 -6 -2 -5 -13z"/>
<path d="M4657 8784 c-4 -4 -7 -17 -7 -28 1 -19 1 -20 11 -3 11 19 8 43 -4 31z"/>
<path d="M2240 8755 c-10 -12 -10 -15 4 -15 9 0 16 7 16 15 0 8 -2 15 -4 15
-2 0 -9 -7 -16 -15z"/>
<path d="M4042 8720 c0 -14 2 -19 5 -12 2 6 2 18 0 25 -3 6 -5 1 -5 -13z"/>
<path d="M6076 8723 c-6 -14 -5 -15 5 -6 7 7 10 15 7 18 -3 3 -9 -2 -12 -12z"/>
<path d="M5991 8684 c0 -11 3 -14 6 -6 3 7 2 16 -1 19 -3 4 -6 -2 -5 -13z"/>
<path d="M6500 8650 c0 -5 5 -10 11 -10 5 0 7 5 4 10 -3 6 -8 10 -11 10 -2 0
-4 -4 -4 -10z"/>
<path d="M2360 8490 c0 -5 5 -10 11 -10 5 0 7 5 4 10 -3 6 -8 10 -11 10 -2 0
-4 -4 -4 -10z"/>
<path d="M2620 8325 c-6 -8 -10 -19 -8 -24 1 -6 8 1 15 14 13 28 11 31 -7 10z"/>
<path d="M9230 8056 c0 -2 8 -10 18 -17 15 -13 16 -12 3 4 -13 16 -21 21 -21
13z"/>
<path d="M8430 7940 c0 -5 5 -10 11 -10 5 0 7 5 4 10 -3 6 -8 10 -11 10 -2 0
-4 -4 -4 -10z"/>
<path d="M8430 7880 c18 -25 85 -70 105 -70 3 0 -10 21 -28 48 -27 37 -40 48
-66 50 l-33 3 22 -31z"/>
<path d="M8720 7860 c0 -5 7 -10 15 -10 8 0 15 5 15 10 0 6 -7 10 -15 10 -8 0
-15 -4 -15 -10z"/>
<path d="M9280 7380 c0 -5 5 -10 11 -10 5 0 7 5 4 10 -3 6 -8 10 -11 10 -2 0
-4 -4 -4 -10z"/>
<path d="M2806 6825 c-9 -26 -7 -32 5 -12 6 10 9 21 6 23 -2 3 -7 -2 -11 -11z"/>
<path d="M2786 6775 c-9 -26 -7 -32 5 -12 6 10 9 21 6 23 -2 3 -7 -2 -11 -11z"/>
<path d="M2763 6711 c1 -14 9 -26 17 -28 10 -3 11 -2 4 4 -7 4 -14 17 -17 28
-5 16 -5 15 -4 -4z"/>
<path d="M2810 6690 c8 -5 20 -10 25 -10 6 0 3 5 -5 10 -8 5 -19 10 -25 10 -5
0 -3 -5 5 -10z"/>
<path d="M3106 5858 c-11 -35 -13 -58 -6 -53 4 3 10 18 12 35 5 30 1 41 -6 18z"/>
<path d="M3222 5815 c0 -16 2 -22 5 -12 2 9 2 23 0 30 -3 6 -5 -1 -5 -18z"/>
<path d="M761 5814 c0 -11 3 -14 6 -6 3 7 2 16 -1 19 -3 4 -6 -2 -5 -13z"/>
<path d="M762 5760 c3 -17 1 -33 -4 -36 -15 -9 -9 -64 7 -64 12 0 15 14 15 65
0 41 -4 65 -11 65 -7 0 -9 -12 -7 -30z"/>
<path d="M3043 5648 c-2 -18 0 -20 7 -8 12 18 13 30 2 30 -4 0 -9 -10 -9 -22z"/>
<path d="M752 5630 c0 -14 2 -19 5 -12 2 6 2 18 0 25 -3 6 -5 1 -5 -13z"/>
<path d="M752 5500 c0 -14 2 -19 5 -12 2 6 2 18 0 25 -3 6 -5 1 -5 -13z"/>
<path d="M776 5433 c-6 -14 -9 -15 -15 -4 -5 7 -14 10 -20 6 -9 -5 -9 -10 0
-21 6 -8 9 -17 6 -20 -9 -9 -27 5 -27 22 0 20 -19 17 -20 -3 0 -10 0 -87 0
-172 0 -154 0 -154 -20 -136 -20 18 -20 18 -20 -28 0 -26 5 -47 10 -47 6 0 10
10 10 22 0 34 13 11 17 -28 2 -29 -3 -40 -22 -56 -20 -15 -24 -25 -19 -46 4
-15 11 -32 16 -39 5 -7 6 -18 1 -25 -16 -25 -32 -82 -26 -92 9 -13 4 -155 -6
-186 -1 -3 -8 4 -16 14 -14 19 -15 19 -15 -8 0 -21 4 -27 15 -22 36 13 45 -4
45 -85 0 -64 -3 -80 -17 -88 -10 -6 -14 -11 -9 -11 5 0 3 -7 -4 -15 -9 -10 -9
-15 -1 -15 6 0 11 5 11 10 0 6 5 10 11 10 7 0 9 -12 5 -32 -3 -18 -7 -39 -8
-46 -1 -6 -8 -11 -17 -10 -14 3 -16 -12 -18 -96 -2 -106 -11 -128 -43 -108
-19 12 -19 10 -14 -47 5 -40 3 -61 -5 -66 -9 -5 -8 -10 5 -19 13 -10 14 -17 7
-31 -10 -17 -11 -17 -24 6 -9 16 -14 70 -15 164 -1 77 -5 168 -9 203 -6 57 -9
63 -29 60 -15 -2 -22 -11 -24 -30 -2 -16 -8 -28 -14 -28 -6 0 -8 12 -4 33 4
17 9 50 11 72 2 22 1 29 -1 15 -3 -14 -10 -35 -16 -47 -7 -15 -9 -70 -5 -170
4 -81 7 -179 7 -217 0 -58 2 -67 14 -56 12 9 15 8 13 -9 -1 -12 -6 -21 -12
-21 -7 0 -10 -24 -9 -67 1 -38 5 -178 8 -313 6 -230 11 -371 22 -720 3 -80 6
-190 8 -245 4 -187 18 -540 22 -570 1 -16 6 -122 9 -235 3 -113 8 -254 10
-315 3 -60 7 -202 10 -315 3 -113 10 -293 16 -400 5 -107 9 -224 9 -260 -1
-86 9 -353 16 -407 l5 -43 197 0 197 0 -7 237 c-4 131 -14 432 -23 668 -8 237
-20 565 -25 730 -6 165 -15 422 -20 570 -5 149 -17 491 -25 760 -16 537 -23
721 -30 865 -3 52 -7 176 -10 275 -3 99 -7 218 -10 265 -3 47 -7 175 -10 285
-3 110 -8 225 -10 255 -3 30 -7 134 -11 230 -4 113 -10 178 -18 182 -8 6 -8 8
2 8 6 0 12 11 12 25 0 14 -5 25 -10 25 -7 0 -8 13 -4 35 7 37 1 47 -10 18z
m-11 -93 c3 -5 -1 -10 -10 -10 -9 0 -13 5 -10 10 3 6 8 10 10 10 2 0 7 -4 10
-10z m15 -100 c0 -5 -2 -10 -4 -10 -3 0 -8 5 -11 10 -3 6 -1 10 4 10 6 0 11
-4 11 -10z m14 -79 c3 -5 0 -11 -8 -14 -8 -3 -17 1 -20 9 -6 15 19 20 28 5z
m-19 -71 c3 -5 -1 -10 -10 -10 -9 0 -13 5 -10 10 3 6 8 10 10 10 2 0 7 -4 10
-10z m-79 -157 c-10 -10 -19 5 -10 18 6 11 8 11 12 0 2 -7 1 -15 -2 -18z m22
-52 c3 -8 -1 -12 -9 -9 -7 2 -15 10 -17 17 -3 8 1 12 9 9 7 -2 15 -10 17 -17z
m-22 -109 c-12 -12 -18 8 -10 35 l8 28 4 -28 c2 -16 1 -31 -2 -35z m-21 -652
c3 -5 1 -10 -4 -10 -6 0 -11 5 -11 10 0 6 2 10 4 10 3 0 8 -4 11 -10z m-50
-132 c12 -100 11 -113 -4 -113 -12 0 -16 20 -19 88 -5 101 11 119 23 25z m-55
-112 c0 -20 32 -45 37 -29 6 18 33 4 33 -17 0 -10 -6 -20 -12 -23 -10 -3 -10
-10 2 -32 16 -30 19 -100 5 -131 -13 -31 -14 -44 -3 -44 6 0 8 -13 6 -30 -2
-16 0 -31 6 -33 7 -2 6 -10 -3 -21 -17 -21 -25 -13 -28 27 -4 61 -8 77 -18 75
-5 -2 -10 -21 -10 -43 0 -49 -19 -63 -23 -17 -2 17 -8 32 -14 32 -7 0 -8 15
-4 43 4 23 7 50 7 60 0 9 0 25 0 35 1 9 0 50 -1 90 -1 45 3 72 9 72 6 0 11 -6
11 -14z m-40 -56 c0 -5 -4 -10 -10 -10 -5 0 -10 5 -10 10 0 6 5 10 10 10 6 0
10 -4 10 -10z m170 -100 c0 -5 -4 -10 -10 -10 -5 0 -10 5 -10 10 0 6 5 10 10
10 6 0 10 -4 10 -10z m-110 -305 c1 -44 1 -91 0 -105 -3 -51 -17 13 -19 88 0
40 -2 76 -2 80 -4 21 2 35 10 27 5 -6 10 -46 11 -90z m42 33 c-9 -9 -12 -7
-12 12 0 19 3 21 12 12 9 -9 9 -15 0 -24z"/>
<path d="M579 3803 c-2 -33 1 -56 7 -63 10 -9 22 24 22 56 0 42 -27 48 -29 7z"/>
<path d="M640 5290 c0 -19 3 -21 12 -12 9 9 9 15 0 24 -9 9 -12 7 -12 -12z"/>
<path d="M657 5013 c-13 -12 -7 -33 8 -33 8 0 15 9 15 20 0 20 -11 26 -23 13z"/>
<path d="M480 4815 c-2 -25 -4 -31 -7 -17 -4 20 -22 32 -24 15 0 -5 -2 -16 -4
-25 -2 -10 3 -18 11 -18 13 0 18 -15 17 -49 -1 -7 2 -9 7 -5 11 13 18 86 9
114 -6 22 -7 20 -9 -15z"/>
<path d="M611 4644 c0 -11 3 -14 6 -6 3 7 2 16 -1 19 -3 4 -6 -2 -5 -13z"/>
<path d="M476 4515 c-9 -26 -7 -32 5 -12 6 10 9 21 6 23 -2 3 -7 -2 -11 -11z"/>
<path d="M480 4385 c0 -16 16 -20 24 -6 3 5 -1 11 -9 15 -9 3 -15 0 -15 -9z"/>
<path d="M6407 3593 c-12 -11 -8 -35 5 -27 6 4 8 3 5 -4 -4 -5 -4 -18 0 -27 5
-15 8 -15 24 6 16 22 16 25 2 41 -17 19 -26 22 -36 11z"/>
<path d="M6470 3444 c-9 -22 -8 -38 5 -70 19 -50 39 -73 83 -96 l34 -18 -7 30
c-7 31 -2 37 40 43 11 1 26 6 33 10 6 5 17 5 22 2 17 -10 180 30 180 45 0 10
-15 26 -42 43 -21 13 -55 18 -145 21 -65 2 -135 7 -155 11 -35 7 -38 6 -48
-21z"/>
<path d="M6095 3331 c-3 -5 2 -16 10 -24 8 -9 15 -26 15 -39 0 -37 81 -178
102 -178 22 0 -13 89 -75 188 -41 66 -43 67 -52 53z"/>
<path d="M7070 2719 c0 -5 5 -7 10 -4 6 3 10 8 10 11 0 2 -4 4 -10 4 -5 0 -10
-5 -10 -11z"/>
<path d="M7052 2122 c-9 -6 -4 -16 18 -37 33 -32 34 -32 44 8 5 20 3 27 -8 27
-8 0 -20 2 -28 5 -7 3 -19 1 -26 -3z"/>
<path d="M7121 2074 c0 -11 3 -14 6 -6 3 7 2 16 -1 19 -3 4 -6 -2 -5 -13z"/>
<path d="M6513 62 c-8 -5 -9 -13 -3 -22 10 -16 23 -8 26 15 2 17 -5 19 -23 7z"/>
<path d="M6445 19 c-28 -19 -28 -20 -5 -14 27 8 46 22 39 29 -3 3 -18 -4 -34
-15z"/>
<path d="M6490 10 c-11 -7 -7 -10 18 -10 20 0 31 4 27 10 -8 13 -26 13 -45 0z"/>
<path d="M6875 10 c-3 -5 -1 -10 4 -10 6 0 11 5 11 10 0 6 -2 10 -4 10 -3 0
-8 -4 -11 -10z"/>
</g>
</svg>
