<?xml version="1.0" standalone="no"?>
<!DOCTYPE svg PUBLIC "-//W3C//DTD SVG 20010904//EN"
 "http://www.w3.org/TR/2001/REC-SVG-20010904/DTD/svg10.dtd">
<svg version="1.0" xmlns="http://www.w3.org/2000/svg"
 width="16.000000pt" height="16.000000pt" viewBox="0 0 16.000000 16.000000"
 preserveAspectRatio="xMidYMid meet">
<metadata>
Created by potrace 1.11, written by Peter Selinger 2001-2013
</metadata>
<g transform="translate(0.000000,16.000000) scale(0.004000,-0.004000)"
fill="#000000" stroke="none">
<path d="M3970 3996 c0 -2 7 -6 15 -10 8 -3 15 -1 15 4 0 6 -7 10 -15 10 -8 0
-15 -2 -15 -4z"/>
<path d="M110 3823 c6 -14 16 -20 25 -17 18 7 20 17 3 11 -7 -2 -19 3 -26 12
-11 14 -12 13 -2 -6z"/>
<path d="M238 3799 c-10 -5 -18 -15 -18 -22 0 -8 3 -9 8 -1 4 6 16 16 27 22
11 6 16 11 10 11 -5 0 -18 -4 -27 -10z"/>
<path d="M160 3789 c0 -5 5 -7 12 -3 6 4 17 -1 25 -11 7 -11 13 -14 13 -9 0
14 -22 34 -37 34 -7 0 -13 -5 -13 -11z"/>
<path d="M297 3785 c30 -21 65 -83 50 -89 -7 -2 -4 -5 6 -5 11 -1 17 6 17 20
0 11 -4 17 -10 14 -5 -3 -10 -2 -10 4 0 14 -50 71 -63 71 -6 0 -2 -7 10 -15z"/>
<path d="M0 3779 c0 -5 5 -7 10 -4 5 3 10 8 10 11 0 2 -4 4 -10 4 -5 0 -10 -5
-10 -11z"/>
<path d="M3380 3784 c-14 -3 -54 -16 -90 -29 -36 -14 -90 -31 -120 -38 -48
-12 -56 -18 -61 -43 -13 -59 -9 -190 7 -245 9 -30 15 -79 14 -109 -2 -30 -3
-90 -3 -132 l-1 -77 -25 14 c-14 7 -36 23 -48 34 -12 12 -28 21 -34 21 -7 0
-5 6 5 13 17 13 17 15 -3 52 -15 29 -19 49 -14 82 4 28 1 53 -7 68 -14 27 -50
34 -50 11 0 -8 -16 -27 -35 -43 -31 -26 -37 -38 -54 -121 -10 -50 -24 -98 -30
-106 -9 -10 -8 -16 3 -25 11 -9 17 -5 30 23 9 19 16 39 16 45 0 6 7 11 15 11
9 0 12 -6 9 -15 -4 -8 -9 -15 -13 -15 -4 0 -7 -8 -7 -19 0 -12 5 -17 15 -13 9
3 12 1 7 -6 -4 -7 -2 -12 3 -12 6 0 11 6 11 14 0 14 21 26 46 26 8 0 14 -6 14
-14 0 -8 8 -13 18 -11 18 2 79 -25 124 -56 24 -18 26 -22 16 -57 -22 -81 -41
-95 -163 -119 -16 -3 -33 -11 -38 -17 -5 -7 -12 -5 -22 8 -8 11 -16 17 -16 13
-1 -4 -3 -11 -4 -17 -1 -5 -3 -15 -4 -21 0 -5 -5 -8 -10 -5 -10 7 -25 -22 -23
-44 1 -10 -1 -11 -4 -3 -4 10 -11 9 -28 -2 -21 -14 -23 -13 -34 7 -13 24 -13
218 0 218 4 0 14 7 22 16 19 18 11 41 -8 25 -8 -7 -21 -6 -40 4 -25 13 -30 13
-52 -3 -33 -23 -38 -52 -19 -98 14 -35 14 -40 0 -50 -8 -6 -15 -16 -15 -23 0
-14 -24 -54 -56 -94 -35 -42 -40 -105 -15 -155 23 -45 55 -66 138 -93 28 -9
71 -33 96 -53 24 -20 49 -36 55 -36 18 0 32 -35 32 -82 1 -24 7 -61 15 -83 8
-22 15 -43 15 -47 0 -5 -22 -8 -49 -8 -47 0 -81 -17 -81 -40 0 -18 40 -86 79
-133 22 -26 51 -78 65 -116 24 -60 25 -74 16 -115 -12 -56 -109 -255 -148
-304 -63 -81 -155 -221 -179 -272 -23 -51 -33 -103 -49 -266 -6 -56 -8 -60
-29 -56 -23 4 -35 34 -35 86 0 24 -74 106 -96 106 -8 0 -17 7 -20 15 -4 10
-13 13 -25 10 -14 -5 -26 5 -50 45 -29 46 -54 70 -77 70 -5 0 -37 -18 -71 -40
-60 -39 -62 -42 -48 -63 8 -12 18 -38 21 -57 4 -19 16 -59 27 -88 13 -36 19
-79 19 -136 0 -52 6 -97 15 -120 14 -34 14 -37 -2 -42 -66 -22 -111 -53 -187
-130 -92 -93 -112 -131 -123 -235 -10 -98 0 -124 91 -235 14 -18 26 -35 26
-39 0 -4 11 -20 25 -37 14 -16 25 -36 25 -44 0 -12 135 -14 950 -14 l950 0 0
1023 0 1023 -72 70 c-40 38 -85 78 -99 89 -30 23 -50 105 -26 105 17 0 47 32
47 50 0 8 11 23 24 35 13 11 27 30 31 43 5 18 2 22 -14 22 -13 0 -21 6 -21 16
0 10 -5 14 -16 10 -8 -3 -12 -2 -9 4 3 6 15 10 26 10 11 0 30 16 47 40 16 25
38 43 55 46 l27 7 0 543 0 543 -55 26 c-164 75 -157 73 -355 78 -102 3 -196 3
-210 1z m-420 -438 c0 -7 -7 -19 -15 -26 -12 -10 -15 -9 -15 7 0 11 3 23 7 26
11 12 23 8 23 -7z m18 -158 c22 -22 12 -29 -18 -13 -16 9 -30 18 -30 20 0 10
36 5 48 -7z m322 -360 c28 -32 30 -58 4 -58 -21 0 -28 -27 -12 -42 34 -32 79
-58 100 -58 17 0 24 -6 25 -20 3 -40 -123 -66 -193 -40 -32 13 -74 50 -74 67
0 26 43 125 67 153 32 38 49 38 83 -2z m-107 -339 c17 13 148 25 183 17 13 -4
24 -12 24 -20 0 -7 7 -19 15 -26 26 -22 17 -25 -216 -88 -101 -27 -107 -28
-117 -11 -10 16 -8 18 18 14 22 -3 30 1 30 12 0 9 -6 13 -13 10 -8 -3 -20 -1
-28 4 -11 7 -8 9 9 9 13 0 21 4 18 9 -3 5 1 14 9 21 8 7 15 19 15 26 0 8 4 14
10 14 5 0 7 8 4 18 -5 15 -4 15 10 -2 12 -15 18 -16 29 -7z m-198 -149 c3 -5
2 -10 -4 -10 -5 0 -13 5 -16 10 -3 6 -2 10 4 10 5 0 13 -4 16 -10z m-555
-1301 c8 -15 8 -29 1 -51 -14 -39 -14 -36 7 -40 13 -3 10 -8 -15 -21 -18 -9
-42 -17 -55 -17 -18 -1 -12 -7 25 -26 42 -22 64 -54 37 -54 -24 0 -6 -19 35
-39 47 -22 61 -37 23 -25 -20 6 -21 5 -9 -10 11 -13 11 -16 1 -16 -8 0 -11 -3
-8 -6 4 -3 20 1 36 10 27 14 33 14 61 0 31 -15 34 -34 5 -34 -8 0 -12 -4 -9
-10 3 -5 -1 -10 -10 -10 -8 0 -18 -6 -21 -14 -6 -15 -45 -29 -76 -29 -100 3
-96 1 -153 56 -50 49 -55 58 -56 98 0 24 -4 53 -8 64 -8 20 8 45 28 45 6 0 11
4 11 8 0 5 -10 8 -21 8 -32 -1 -33 17 -1 36 15 10 54 35 87 57 33 21 63 40 67
40 4 1 12 -8 18 -20z m125 -119 c-3 -5 -16 -10 -28 -9 -20 1 -20 2 3 9 14 4
26 8 28 9 2 1 0 -3 -3 -9z m-34 -367 c75 -6 77 -7 93 -39 8 -19 23 -34 32 -34
14 0 15 -12 9 -110 -4 -61 -10 -134 -14 -163 -7 -52 -7 -52 -21 -24 -7 15 -17
27 -21 27 -5 0 -6 14 -2 30 5 29 -8 42 -22 20 -8 -13 -35 -13 -35 -1 0 5 9 13
20 16 30 9 24 27 -7 23 -21 -2 -30 3 -39 21 -7 13 -27 39 -45 58 -18 19 -42
62 -54 96 -13 34 -26 71 -30 81 -8 17 -5 19 26 12 19 -4 68 -9 110 -13z m69
-302 c0 -5 -7 -12 -16 -15 -14 -5 -15 -4 -4 9 14 17 20 19 20 6z"/>
<path d="M2630 319 c0 -5 5 -7 10 -4 6 3 10 8 10 11 0 2 -4 4 -10 4 -5 0 -10
-5 -10 -11z"/>
<path d="M54 3769 c-11 -18 14 -35 29 -20 10 10 8 11 -7 5 -16 -6 -18 -4 -13
9 7 19 2 23 -9 6z"/>
<path d="M211 3734 c0 -11 3 -14 6 -6 3 7 2 16 -1 19 -3 4 -6 -2 -5 -13z"/>
<path d="M175 3730 c-3 -6 1 -7 9 -4 18 7 21 14 7 14 -6 0 -13 -4 -16 -10z"/>
<path d="M174 3694 c14 -17 36 -12 36 8 0 7 -4 7 -13 -1 -9 -7 -18 -7 -25 -1
-7 6 -6 3 2 -6z"/>
<path d="M2710 3122 c0 -12 19 -26 26 -19 2 2 -2 10 -11 17 -9 8 -15 8 -15 2z"/>
<path d="M1910 1409 c0 -5 5 -7 10 -4 6 3 10 8 10 11 0 2 -4 4 -10 4 -5 0 -10
-5 -10 -11z"/>
<path d="M1930 1356 c0 -26 19 -56 35 -56 8 0 15 5 15 10 0 6 11 10 24 10 36
0 81 19 70 29 -5 5 -39 12 -76 16 -60 6 -68 5 -68 -9z"/>
<path d="M1780 1318 c0 -11 41 -87 51 -93 13 -9 -10 48 -31 75 -11 14 -20 22
-20 18z"/>
<path d="M2170 830 c0 -5 5 -10 11 -10 5 0 7 5 4 10 -3 6 -8 10 -11 10 -2 0
-4 -4 -4 -10z"/>
<path d="M1928 3 c7 -3 16 -2 19 1 4 3 -2 6 -13 5 -11 0 -14 -3 -6 -6z"/>
</g>
</svg>
